<svg width="1280" height="800" viewBox="0 0 1280 800" fill="none" xmlns="http://www.w3.org/2000/svg">
  <rect width="1280" height="800" rx="28" fill="#F6EDE5"/>
  <rect x="48" y="48" width="1184" height="704" rx="26" fill="#FFF9F4"/>
  <rect x="72" y="72" width="250" height="656" rx="24" fill="#38261C"/>
  <rect x="348" y="92" width="852" height="84" rx="22" fill="white" stroke="#E2C8B8"/>
  <rect x="348" y="206" width="194" height="150" rx="24" fill="#FFE7D8"/>
  <rect x="564" y="206" width="194" height="150" rx="24" fill="#FFE7D8"/>
  <rect x="780" y="206" width="194" height="150" rx="24" fill="#FFE7D8"/>
  <rect x="996" y="206" width="194" height="150" rx="24" fill="#FFE7D8"/>
  <rect x="348" y="390" width="516" height="314" rx="24" fill="white" stroke="#E2C8B8"/>
  <rect x="888" y="390" width="312" height="314" rx="24" fill="white" stroke="#E2C8B8"/>
  <text x="102" y="130" fill="#FFF6EF" font-family="Trebuchet MS" font-size="32" font-weight="700">BeautyHub Admin</text>
  <text x="384" y="145" fill="#38261C" font-family="Trebuchet MS" font-size="40" font-weight="700">Dashboard Overview</text>
  <text x="384" y="252" fill="#7A5D49" font-family="Trebuchet MS" font-size="22">Total Users</text>
  <text x="384" y="308" fill="#38261C" font-family="Trebuchet MS" font-size="58" font-weight="700">24</text>
  <text x="600" y="252" fill="#7A5D49" font-family="Trebuchet MS" font-size="22">Total Services</text>
  <text x="600" y="308" fill="#38261C" font-family="Trebuchet MS" font-size="58" font-weight="700">18</text>
  <text x="816" y="252" fill="#7A5D49" font-family="Trebuchet MS" font-size="22">Appointments</text>
  <text x="816" y="308" fill="#38261C" font-family="Trebuchet MS" font-size="58" font-weight="700">12</text>
  <text x="1032" y="252" fill="#7A5D49" font-family="Trebuchet MS" font-size="22">Revenue</text>
  <text x="1032" y="308" fill="#38261C" font-family="Trebuchet MS" font-size="58" font-weight="700">₹18k</text>
</svg>
